<svg width="25" height="25" viewBox="0 0 25 25" fill="none" xmlns="http://www.w3.org/2000/svg">
<path d="M19.3559 4.7888L10.1388 4.7888C9.89874 4.7888 9.70432 4.98323 9.70435 5.22325C9.70435 5.46329 9.89877 5.65772 10.1388 5.65769L18.307 5.65769L4.91579 19.0489C4.74597 19.2187 4.74597 19.4935 4.91579 19.6633C5.08561 19.8332 5.36046 19.8332 5.53028 19.6633L18.9215 6.27218L18.9214 14.4403C18.9214 14.6804 19.1158 14.8748 19.3559 14.8748C19.4759 14.8748 19.5845 14.8261 19.6631 14.7475C19.7417 14.6689 19.7903 14.5603 19.7903 14.4403L19.7903 5.22322C19.7903 4.98323 19.5959 4.78881 19.3559 4.7888Z" fill="#292929"/>
</svg>
