<svg width="25" height="25" viewBox="0 0 25 25" fill="none" xmlns="http://www.w3.org/2000/svg">
<path d="M4.78856 5.22275L4.78856 14.4398C4.78856 14.6799 4.98298 14.8743 5.223 14.8743C5.46305 14.8743 5.65747 14.6798 5.65744 14.4398L5.65744 6.27165L19.0486 19.6628C19.2184 19.8326 19.4933 19.8326 19.6631 19.6628C19.8329 19.493 19.8329 19.2182 19.6631 19.0483L6.27193 5.65716L14.4401 5.65719C14.6801 5.65719 14.8745 5.46277 14.8745 5.22275C14.8745 5.10276 14.8259 4.99411 14.7473 4.9155C14.6687 4.8369 14.5601 4.78831 14.44 4.78828L5.22297 4.78828C4.98298 4.78828 4.78856 4.9827 4.78856 5.22275Z" fill="#292929"/>
</svg>
