<svg width="38" height="38" viewBox="0 0 38 38" fill="none" xmlns="http://www.w3.org/2000/svg">
<path d="M29.7826 7.89053L15.9308 7.89053C15.5701 7.89053 15.2779 8.18272 15.2779 8.54343C15.2779 8.90418 15.5701 9.19637 15.9308 9.19632L28.2063 9.19632L8.08149 29.3211C7.82627 29.5763 7.82627 29.9894 8.08149 30.2446C8.33671 30.4998 8.74975 30.4998 9.00497 30.2446L29.1297 10.1198L29.1297 22.3952C29.1297 22.756 29.4219 23.0481 29.7826 23.0481C29.9629 23.0481 30.1262 22.975 30.2443 22.8569C30.3625 22.7388 30.4355 22.5755 30.4355 22.3952L30.4355 8.54338C30.4355 8.18272 30.1433 7.89053 29.7826 7.89053Z" fill="#F9F9F9"/>
</svg>
